<svg xmlns="http://www.w3.org/2000/svg" viewBox="0 0 598.68 149.68"><defs><clipPath id="clip-path"><path fill="none" d="M0 0h598.68v149.68H0z"/></clipPath><style>.cls-3{fill:#fff}</style></defs><g id="レイヤー_2" data-name="レイヤー 2"><g clip-path="url(#clip-path)" id="レイヤー_1-2" data-name="レイヤー 1"><path class="cls-3" d="M367.37 40.82V13.61h190.48l40.83 40.81-40.83 40.83H449V68h95.24l6.8-6.82c4.86-4.86 4.88-8.71 0-13.58l-6.81-6.82H428.6a7.31 7.31 0 00-6.8 6.8v47.67h-68l-47.66-47.63c-3.4-3.38-10.2-3.4-13.61 0l-13.6 13.6c-3.4 3.4-1.59 6.82 1.81 6.82h18.59v27.21H190.48V47.62a7.3 7.3 0 00-6.8-6.8h-6.8l-68 68-68-68H34a7.32 7.32 0 00-6.81 6.8v47.63H0V13.61h54.42L102 61.25c3.4 3.39 10.22 3.37 13.62 0l47.62-47.61h54.41v47.6a7.35 7.35 0 006.86 6.76h6.8l68-68 68 68h20.41a7.33 7.33 0 006.8-6.82V40.82zM448.37 108.86a12.76 12.76 0 0112.76 12.77h-12.76a2.55 2.55 0 00-2.55-2.57h-10.2a2.56 2.56 0 100 5.12h12.75a12.75 12.75 0 110 25.5h-15.3a12.75 12.75 0 01-12.76-12.76h12.75a2.57 2.57 0 002.56 2.56h10.2a2.56 2.56 0 002.55-2.56 2.53 2.53 0 00-2.55-2.54h-12.75a12.77 12.77 0 010-25.53zM167.53 136.93a2.56 2.56 0 01-2.56 2.55h-10.2a2.55 2.55 0 01-2.55-2.55v-15.3a2.55 2.55 0 012.55-2.57H165a2.56 2.56 0 012.56 2.57zm12.75-15.3a12.76 12.76 0 00-12.76-12.77h-15.3a12.78 12.78 0 00-12.76 12.78v15.3a12.75 12.75 0 0012.76 12.75h15.31a12.75 12.75 0 0012.75-12.75zM319.75 136.93A12.75 12.75 0 01307 149.68h-15.32a12.75 12.75 0 01-12.75-12.75v-28.08h12.75v28.08a2.56 2.56 0 002.55 2.55h10.22a2.56 2.56 0 002.55-2.55v-28.08h12.75zM556.14 108.85h35.74v10.2h-22.97v5.11h22.97v10.22h-22.97v5.09h22.97v10.21h-35.74v-40.83zM0 108.85h12.76v15.31h15.3v-15.31h12.76v40.83H28.06v-15.3h-15.3v15.3H0v-40.83zM576.25 87.12h-2.99v-1.86h8.19v1.86h-3v8.13h-2.2v-8.13zM582.94 85.26h3.09l2.32 6.87h.03l2.22-6.87h3.09v9.99h-2.05v-7.08h-.03l-2.45 7.08h-1.7l-2.45-7.02h-.03v7.02h-2.04v-9.99z"/></g></g></svg>