<svg xmlns="http://www.w3.org/2000/svg" viewBox="0 0 478.4 198.4"><defs><style>.cls-1{fill:#fff}</style></defs><g id="レイヤー_2" data-name="レイヤー 2"><g id="レイヤー_1-2" data-name="レイヤー 1"><path class="cls-1" d="M18.3 59.06a18.38 18.38 0 012 .1 17 17 0 0110.88 5.3C42.43 77.05 15.43 93.12 4.73 85.12c-4.93-3.69-5.9-11.39-3.4-16.63 2.94-6.19 10.33-9.43 17-9.43M25.61 110.79c9.71 3.4 14.32 18.29 3.83 23.66-7.91 4-19.44-1.71-18.7-11.3a13 13 0 013.34-7.41c1.77-2 4-4.18 6.69-4.84a10.17 10.17 0 014.84-.11M214 87.49a30.47 30.47 0 00-7.42 4.69c-8.46 7.24-11 13.86-10.1 25.06.09 1.1 7-1.61 9.24-2.49 8.22-3.22 26.22-10.77 20.85-23.4-2.56-6-7.75-5.91-12.57-3.86M231.27 67a39 39 0 019.55 6.74c9.53 8.69 13.16 20.76 9.45 33.22-5 16.76-24.39 21.86-39.49 25.81-4.53.67-8.81 1.05-10.28 1.59 2.42 13 23.1 12.41 32.23 9.15 4.3-1.55 8.57-3.21 12.72-5.16 1.91-.89 9.24-6.31 11-4.22 3.12 3.73 3 12.37.79 16.63-1.14 2.23-4.22 4.37-6.3 5.4-15.51 7.64-37.37 10.49-52.07-.48a54.51 54.51 0 01-12.14-12.21 47.26 47.26 0 01-5.78-11.89c-4.09-12.81-5-28.64 1.22-40.94 4.29-8.49 12.08-16.84 20.52-21.36 4.8-2.58 12.8-4.91 18.29-4.71A26.24 26.24 0 01231.27 67M371.31 121.92c0 .33-.08.67-.11 1-1 9.89-1.64 19.82-3 29.66-.71 5-1.21 10-2 15-.62 3.75-1.13 7.67-3.15 11-6.32 10.29-15.3 5.25-21.43-3.29 0 0-20.24-29.5-29.28-46.21-12-22.21-19.31-35.67-24.23-45.58a24.82 24.82 0 00.19 4.23c1.05 15.5 2.2 35.79 3 51.3q.68 12.63 1.39 25.29c.43 7.39 1.59 15.42-1.78 22.35-3 6.07-8.55 4.74-12.7.93-2.48-2.27-5.81-5.6-7.21-10.24-1.31-4.35-1.4-7.7-2-12.15-4.7-32.74-5.55-66.93-5.27-100 .09-10.59 0-53.28 8.84-51.47 3.13.64 8.36 1.68 10.53 4 3.32 3.47 5.24 8.5 6.92 12.87 5.8 15.09 12 29.59 19.52 45.87 5.62 12.19 11.86 23.91 18.2 35.71 3.92 7.29 8.09 14.43 12.35 21.51a78.6 78.6 0 003.68 5.56c.63.88 1.11 1 1.09 1.23.93-8.27.58-16.77.81-25 .56-19.62 1.06-39.26 3.6-58.74C351 43 352.4 28.8 357 15.7c1.67-4.76 3.43-10.71 8.1-13.37A22 22 0 01375.31 0a19.16 19.16 0 018.42 2.12c4.62 2.32 3.74 7.7 3 11.74-.53 2.87-1.28 8-1.83 11.47-1 6.13-1.6 9.35-2.62 15.48-1.19 7.24-2.38 14.46-3.41 21.73-1.43 10-2.7 20-4 30-1.25 9.77-2.58 19.55-3.59 29.35M425.4 100.71c3-.4 10.45-1 10.45-1-.79-8.06-2.21-12.93-3.55-20.92-.75-4.47-2.1-12.28-4.36-16.28-1.5-2.66-4.17 4.59-4.5 5.46a131.92 131.92 0 00-5.15 17 132.84 132.84 0 00-3.82 17.45s4.6-.81 10.93-1.69m6.5-86.31a19.1 19.1 0 012.15 4.19c7.3 17.25 23.75 76.15 23.91 76.67 0 0 8.38-.77 10.52-.7 6.13-.47 10.64-.51 9.82 7.18-.72 6.7-1.35 10.59-5.3 11.32-5.93.83-10.3 1.24-11.67 1.28.13.4 10 46.5 10.6 51a44.82 44.82 0 01.61 9.71 12.52 12.52 0 01-3.44 7.55c-2.18 2.58-3.5 5.08-7 3.3-2.29-1.15-5.06-2.14-7-3.89s-2.61-4.43-3.7-6.76c-1.62-3.46-9.89-45-10.88-51.09-.45-2.73-1.66-7.45-1.66-7.45-4.89 0-9.75.59-14.61 1-3.78.32-11.11.78-12.95 1.57-1.86 1.12-2.62 9.37-3 11.32-3.23 17.65-3.66 35.62-4.47 53.5-.1 2.24.43 5.82-2.46 6.33-3.1.56-8.73-4.15-11-6a21.39 21.39 0 01-6.23-10.6c-3.42-15.61.73-30.83 3.9-46.11 5.5-26.4 12.62-52.45 20.71-78.17 2.68-8.55 5.47-17.07 8.62-25.46a57.36 57.36 0 013.42-8.27c1.18-2.1 2.85-4.34 5.54-4a8.61 8.61 0 012.88.93 8.33 8.33 0 012.62 1.7"/><path class="cls-1" d="M152.75 41.23c-7.26-9-16.82-16.1-26.58-22.21C105 5.73 88.27.26 57.46 2A81 81 0 0040.2 5.08a5.24 5.24 0 00-3.47 4.2 29.94 29.94 0 00-.5 5.26c-.12 5.86-.28 13.78 6.32 16.19 2.61 1 6.52-1.77 7.69 2.31.24.84.43 1.69.64 2.54 1.75 7 3.44 14 4.72 21.14a215.56 215.56 0 012.74 21.5c.62 7.75.91 15.53 1 23.31.15 8.94.08 17.88-.15 26.82-.13 4.91-.31 9.83-.5 14.74-.24 5.84-.22 11.77-1.21 17.55-.09.48-.19 2.9-.53 3-10 4.24-25.08-6.78-26.25 10.94-.1 1.56 1.64 15.2 4.73 19 2.72 3.37 8 4.19 14.23 4.42 3.9.14 7.82.31 11.73.32A82.21 82.21 0 0081 196.23a113.47 113.47 0 0018.4-6.38 128.12 128.12 0 0015.59-8 174.06 174.06 0 0014.64-10.06c12.53-9.53 24.43-21.14 31.66-35.29 4.25-8.32 6.63-19.45 8-28.65 3.33-23-1.75-48.28-16.52-66.6M112.48 152a105.68 105.68 0 01-13.79 6.51c-2.74 1.07-15.45 6.4-14.67-1 1.14-10.91 2.41-25 2.62-36a426.34 426.34 0 00-2-52.15c-.48-4.67-1.25-9.94-1.9-14.58-1.17-6.92-2.66-14.54-3.87-20.56-1.41-7 8.67-4.82 12.52-3.93a76.23 76.23 0 0122.86 9.86C128 49 140 62.26 143.08 78.57c4.57 23.87-.73 50.4-20 66.18a76.09 76.09 0 01-10.6 7.25"/></g></g></svg>