<svg xmlns="http://www.w3.org/2000/svg" viewBox="0 0 480.87 68.3"><defs><clipPath id="clip-path"><path fill="none" d="M0 0h480.87v68.3H0z"/></clipPath><style>.cls-2{clip-path:url(#clip-path)}.cls-3{fill:#fff;fill-rule:evenodd}</style></defs><g id="レイヤー_2" data-name="レイヤー 2"><g id="レイヤー_1-2" data-name="レイヤー 1"><g class="cls-2"><path class="cls-3" d="M415.2 57.27v10.92h-42.58l17.94-27.63a25.09 25.09 0 01-2.53.51c-2.22.2-4.45.48-6.68.49h-40.57V30.17h32.4a28.51 28.51 0 005.19-.62 3.5 3.5 0 002.95-3.38 99 99 0 000-10.62c-.13-2.36-2.25-3.8-5.12-3.85-5-.1-10.09-.2-15.14-.22h-30.07v56.86h-18.16l-.17-57.5H303s-.13 12-.05 17.47c.11 7.8-4.49 11.32-10.32 12.54a37.07 37.07 0 01-7.43.73c-13.22.07-40.32 0-40.76 0V30.17h31.83a31.07 31.07 0 005-.44 4.32 4.32 0 003.73-4.65v-8.09c0-3.42-1.77-5.26-5.22-5.32-5.76-.1-11.52-.19-17.28-.22h-28.11v56.82h-37.36s-34.86-54.72-35.2-55.22l-28.46 44.24h18.48v10.92H87.5s-.34-32.62.37-49.07c-.18.23-34.59 41-34.59 41h-3.67S15.27 19.39 14.92 18.93V68.3H0V0h15s35.14 39.78 36.67 41.46L88.67 0h16.08v57.41h10.78L153.39 0h18.24l37 56.21h7.53V10.84h-21V0h175.31c4.57 0 9.14-.11 13.7.08 4.25.18 8.39 1 11.7 4a10.07 10.07 0 013.38 7.44c.12 4.56.21 15.07.21 15.07s.6-.7.79-1L416.93 0H435l45.83 68.06h-20.3l-35.33-55-28.1 44.21z"/></g><g class="cls-2"><path class="cls-3" d="M415.2 57.27v10.92h-42.58l17.94-27.63a25.09 25.09 0 01-2.53.51c-2.22.2-4.45.48-6.68.49h-40.57V30.17h32.4a28.51 28.51 0 005.19-.62 3.5 3.5 0 002.95-3.38 99 99 0 000-10.62c-.13-2.36-2.25-3.8-5.12-3.85-5-.1-10.09-.2-15.14-.22h-30.07v56.86h-18.16l-.17-57.5H303s-.13 12-.05 17.47c.11 7.8-4.49 11.32-10.32 12.54a37.07 37.07 0 01-7.43.73c-13.22.07-40.32 0-40.76 0V30.17h31.83a31.07 31.07 0 005-.44 4.32 4.32 0 003.73-4.65v-8.09c0-3.42-1.77-5.26-5.22-5.32-5.76-.1-11.52-.19-17.28-.22h-28.11v56.82h-37.36s-34.86-54.72-35.2-55.22l-28.46 44.24h18.48v10.92H87.5s-.34-32.62.37-49.07c-.18.23-34.59 41-34.59 41h-3.67S15.27 19.39 14.92 18.93V68.3H0V0h15s35.14 39.78 36.67 41.46L88.67 0h16.08v57.41h10.78L153.39 0h18.24l37 56.21h7.53V10.84h-21V0h175.31c4.57 0 9.14-.11 13.7.08 4.25.18 8.39 1 11.7 4a10.07 10.07 0 013.38 7.44c.12 4.56.21 15.07.21 15.07s.6-.7.79-1L416.93 0H435l45.83 68.06h-20.3l-35.33-55-28.1 44.21z"/></g></g></g></svg>